<?xml version="1.0" encoding="utf-8"?><!-- Uploaded to: SVG Repo, www.svgrepo.com, Generator: SVG Repo Mixer Tools -->
<svg width="800px" height="800px" viewBox="0 0 24 24" fill="none" xmlns="http://www.w3.org/2000/svg">
<path stroke="black" stroke-width="0.8" d="M8.28354 13.9476L7.93199 13.5921C7.85382 13.6694 7.80329 13.7703 7.78825 13.8792L8.28354 13.9476ZM13.5544 8.73602L13.9059 9.09157H13.9059L13.5544 8.73602ZM15.168 10.3292L15.528 10.6762L15.168 10.3292ZM9.98481 15.7068L10.0579 16.2014C10.1672 16.1853 10.2681 16.1334 10.3448 16.0538L9.98481 15.7068ZM8 16L7.5047 15.9316C7.48316 16.0875 7.53629 16.2444 7.64811 16.3552C7.75992 16.466 7.91736 16.5176 8.07307 16.4946L8 16ZM15.0918 8.68334L15.4181 8.30457V8.30457L15.0918 8.68334ZM19.6873 14.2222L19.2515 14.4673C19.3263 14.6003 19.4576 14.6918 19.6083 14.7159C19.7589 14.7401 19.9123 14.6941 20.0248 14.5911L19.6873 14.2222ZM18.2799 17.7283C18.4661 17.5243 18.4516 17.2081 18.2477 17.0219C18.0437 16.8358 17.7275 16.8502 17.5413 17.0542L18.2799 17.7283ZM19.4358 12.7549C19.3005 12.5142 18.9956 12.4288 18.7549 12.5642C18.5142 12.6995 18.4288 13.0044 18.5642 13.2451L19.4358 12.7549ZM21.0875 13.6189C21.2912 13.4325 21.3053 13.1162 21.1189 12.9125C20.9325 12.7088 20.6162 12.6947 20.4125 12.8811L21.0875 13.6189ZM8.6351 14.3032L13.9059 9.09157L13.2028 8.38048L7.93199 13.5921L8.6351 14.3032ZM14.808 9.98221L9.62481 15.3598L10.3448 16.0538L15.528 10.6762L14.808 9.98221ZM9.91174 15.2122L7.92693 15.5054L8.07307 16.4946L10.0579 16.2014L9.91174 15.2122ZM8.4953 16.0684L8.77884 14.0161L7.78825 13.8792L7.5047 15.9316L8.4953 16.0684ZM14.7654 9.06212C15.0411 9.29971 15.0606 9.72016 14.808 9.98221L15.528 10.6762C16.179 10.0007 16.1288 8.91697 15.4181 8.30457L14.7654 9.06212ZM13.9059 9.09157C14.1409 8.8592 14.515 8.84638 14.7654 9.06212L15.4181 8.30457C14.7728 7.74849 13.8085 7.78154 13.2028 8.38048L13.9059 9.09157ZM12 19.5C7.85786 19.5 4.5 16.1421 4.5 12H3.5C3.5 16.6944 7.30558 20.5 12 20.5V19.5ZM4.5 12C4.5 7.85786 7.85786 4.5 12 4.5V3.5C7.30558 3.5 3.5 7.30558 3.5 12H4.5ZM12 4.5C16.1421 4.5 19.5 7.85786 19.5 12H20.5C20.5 7.30558 16.6944 3.5 12 3.5V4.5ZM19.5 12C19.5 12.7237 19.3976 13.4227 19.2069 14.0836L20.1677 14.3608C20.3842 13.6107 20.5 12.8185 20.5 12H19.5ZM17.5413 17.0542C16.1691 18.5578 14.1949 19.5 12 19.5V20.5C14.4876 20.5 16.7262 19.4307 18.2799 17.7283L17.5413 17.0542ZM20.1231 13.9771L19.4358 12.7549L18.5642 13.2451L19.2515 14.4673L20.1231 13.9771ZM20.0248 14.5911L21.0875 13.6189L20.4125 12.8811L19.3498 13.8533L20.0248 14.5911Z" fill="#464455"/>
</svg>